<svg width="348" height="115" viewBox="0 0 348 115" fill="none" xmlns="http://www.w3.org/2000/svg">
<g clip-path="url(#clip0_389_1272)">
<rect width="348" height="115" rx="8" fill="#304E9C"/>
<path d="M270.185 45.458C261.689 51.4618 259.811 62.9454 266.036 71.1412L294.095 110.929C300.32 119.125 312.225 120.935 320.722 114.931C329.219 108.928 331.096 97.4439 324.921 89.2482L296.812 49.4605C290.588 41.2648 278.682 39.4541 270.185 45.458Z" fill="#293E68"/>
<path d="M285.944 88.3427C276.064 88.3427 268.061 96.1097 268.111 105.64L268.259 170.682C268.259 180.212 276.311 187.931 286.191 187.883C296.071 187.883 304.074 180.116 304.025 170.586L303.877 105.544C303.877 96.0144 295.824 88.2951 285.944 88.3427Z" fill="#293E68"/>
<path d="M257.49 86.3891C247.61 86.3415 239.557 94.0608 239.557 103.591L239.36 168.633C239.31 178.163 247.313 185.93 257.193 185.93C267.073 185.977 275.126 178.258 275.126 168.728L275.323 103.686C275.323 94.1561 267.37 86.3891 257.49 86.3891Z" fill="#365484"/>
<path d="M298.146 54.9879C298.146 47.6975 290.292 41.7889 282.733 41.7889C282.19 41.7889 252.797 41.7889 252.797 41.7889C245.485 42.0272 239.607 47.7452 239.508 54.8926V107.641H304.272C304.272 107.641 298.146 55.4644 298.146 54.9879Z" fill="#365484"/>
<path d="M283.326 46.5063C283.326 46.5063 288.365 64.6609 289.55 72.0466C289.847 73.9526 291.378 79.5276 285.994 79.5276C280.609 79.5276 280.955 72.9043 280.955 72.9043L283.326 46.5063Z" fill="#191919"/>
<path d="M293.492 69.0597C295.565 68.7296 296.827 66.0205 296.311 63.0087C295.796 59.9969 293.698 57.823 291.625 58.153C289.552 58.4831 288.29 61.1923 288.806 64.204C289.321 67.2158 291.419 69.3898 293.492 69.0597Z" fill="#FFD176"/>
<path d="M275.175 17.2017C275.175 22.2049 278.386 26.2551 282.338 26.2551C286.29 26.2551 289.452 22.2049 289.501 17.2017H275.175Z" fill="#FFB266"/>
<path d="M269.049 10.626L260.602 16.344C260.256 16.2487 258.329 16.0104 258.329 17.154C258.329 26.5887 263.763 26.2551 263.763 26.2551V41.789L283.128 46.5063L283.672 41.9796L281.399 30.8772C285.598 30.8772 286.883 27.3511 286.883 25.2068V10.626H269.049Z" fill="#FFC885"/>
<path d="M272.557 14.3903H276.46C276.806 14.3903 277.102 14.1044 277.102 13.7708C277.102 13.4373 276.806 13.1514 276.46 13.1514H272.557C272.211 13.1514 271.915 13.4373 271.915 13.7708C271.964 14.1044 272.211 14.3903 272.557 14.3903Z" fill="#000851"/>
<path d="M281.992 14.3903H285.894C286.24 14.3903 286.537 14.1044 286.537 13.7708C286.537 13.4373 286.24 13.1514 285.894 13.1514H281.992C281.646 13.1514 281.35 13.4373 281.35 13.7708C281.35 14.1044 281.646 14.3903 281.992 14.3903Z" fill="#000851"/>
<path d="M263.319 22.2048L263.418 22.0618C263.615 21.8236 263.615 21.49 263.368 21.2994L260.454 18.8216C260.207 18.631 259.861 18.631 259.663 18.8693L259.564 19.0122C259.367 19.2505 259.367 19.584 259.614 19.7746L262.528 22.2524C262.775 22.443 263.121 22.3954 263.319 22.2048Z" fill="#000851"/>
<path d="M280.016 24.349C278.534 24.349 276.805 24.0631 276.213 22.9195C276.114 22.7766 276.213 22.586 276.361 22.4907C276.509 22.3954 276.707 22.4907 276.805 22.6336C277.546 24.0631 281.004 23.7772 282.239 23.539C282.437 23.4913 282.585 23.6343 282.635 23.7772C282.684 23.9678 282.536 24.1108 282.388 24.1584C282.239 24.1584 281.202 24.349 280.016 24.349Z" fill="#000851"/>
<path d="M275.373 17.8687C275.837 17.8687 276.213 17.506 276.213 17.0586C276.213 16.6113 275.837 16.2486 275.373 16.2486C274.909 16.2486 274.533 16.6113 274.533 17.0586C274.533 17.506 274.909 17.8687 275.373 17.8687Z" fill="#000851"/>
<path d="M283.968 17.8687C284.432 17.8687 284.808 17.506 284.808 17.0586C284.808 16.6113 284.432 16.2486 283.968 16.2486C283.504 16.2486 283.128 16.6113 283.128 17.0586C283.128 17.506 283.504 17.8687 283.968 17.8687Z" fill="#000851"/>
<path d="M280.312 16.6775L283.968 21.7284H280.312V16.6775Z" fill="#000851"/>
<path d="M284.709 5.24149H269.494C269.494 5.24149 267.567 5.0509 266.382 5.9086C265.591 5.47975 264.702 5.19385 263.714 5.19385C260.75 5.19385 258.379 7.52868 258.379 10.34C258.379 10.5306 258.379 17.1063 258.379 17.1063L263.813 17.154C263.813 17.154 268.704 23.0149 269.099 23.3484L269.148 10.6259H286.883C286.883 10.6259 286.932 10.6259 286.883 10.6259C286.834 10.6259 287.081 5.24149 284.709 5.24149Z" fill="#000851"/>
<path d="M256.996 42.9801C247.066 39.597 236.198 44.6479 232.691 54.2732L214.659 99.1117C211.152 108.689 216.388 119.172 226.367 122.555C236.297 125.939 247.165 120.888 250.672 111.262L268.704 66.4239C272.162 56.8463 266.925 46.3633 256.996 42.9801Z" fill="#426599"/>
<path d="M268.605 72.9519C278.93 75.0485 285.451 85.055 283.228 95.0138C281.054 104.973 270.927 111.31 260.602 109.166L236.396 104.21C234.766 103.877 233.728 102.304 234.074 100.732L234.42 99.1593C234.766 97.5869 236.396 96.5862 238.026 96.9198C236.396 96.5862 235.359 95.0138 235.705 93.4413L236.05 91.8689C236.396 90.2964 238.026 89.2958 239.657 89.6293C238.026 89.2958 236.989 87.7233 237.335 86.1509L237.681 84.5785C238.026 83.006 239.657 82.0054 241.287 82.3389C239.657 82.0054 238.619 80.4329 238.965 78.8605L239.311 77.288C239.657 75.7156 241.287 74.7149 242.917 75.0485L247.314 75.9538C248.4 72.1418 252.402 69.7594 256.403 70.617L268.605 72.9519Z" fill="#FFB266"/>
<path d="M286.883 4.19319C286.883 1.90599 285.252 0 283.227 0H261.985C259.959 0 258.329 1.90599 258.329 4.19319C258.329 4.28849 258.329 11.2454 258.329 11.2454H286.883C286.883 11.2454 286.883 4.33614 286.883 4.19319Z" fill="#304E9C"/>
<path d="M293.156 7.76691H271.42C270.877 7.76691 270.481 8.19575 270.481 8.67225V10.34C270.481 10.8641 270.926 11.2453 271.42 11.2453H293.156C293.7 11.2453 294.095 10.8165 294.095 10.34V8.67225C294.095 8.19575 293.7 7.76691 293.156 7.76691Z" fill="#293E68"/>
<path d="M272.902 30.8294L281.35 30.8771L283.622 41.9795L272.902 30.8294Z" fill="#FFB266"/>
<path d="M313.608 82.1483L264.751 72.1418L257.588 108.499L305.655 118.124C315.979 120.221 326.107 113.883 328.28 103.972C330.454 94.0131 323.884 84.2449 313.608 82.1483Z" fill="#293E68"/>
<path d="M282.091 81.0524C271.618 82.2437 264.158 91.6307 265.393 101.685C266.628 111.787 276.113 118.982 286.537 117.79L311.089 115.027C312.769 114.836 313.954 113.359 313.757 111.787L313.559 110.166C313.361 108.546 311.83 107.403 310.2 107.593C311.879 107.403 313.065 105.926 312.867 104.353L312.67 102.733C312.472 101.113 310.941 99.9694 309.311 100.16C310.99 99.9694 312.176 98.4923 311.978 96.9198L311.781 95.2997C311.583 93.6796 310.052 92.536 308.421 92.7266C310.101 92.536 311.287 91.0589 311.089 89.4864L310.891 87.8663C310.694 86.2462 309.162 85.1027 307.532 85.2933L303.086 85.8174C302.395 81.9578 298.64 79.1941 294.54 79.6706L282.091 81.0524Z" fill="#FFC885"/>
<path d="M288.859 117.552L284.808 80.7189L230.517 86.8657C220.044 88.0569 212.584 97.2057 213.819 107.26C215.054 117.362 224.539 124.557 234.963 123.365L288.859 117.552Z" fill="#426599"/>
</g>
<defs>
<clipPath id="clip0_389_1272">
<rect width="348" height="115" rx="8" fill="white"/>
</clipPath>
</defs>
</svg>
