<svg width="348" height="115" viewBox="0 0 348 115" fill="none" xmlns="http://www.w3.org/2000/svg">
<g clip-path="url(#clip0_336_2140)">
<rect width="348" height="115" rx="8" fill="#FD7F4E"/>
<path d="M251.8 9.18811L289.327 27.6694L280.666 91.1994L241.406 79.6502L251.8 9.18811Z" fill="#F7DC64"/>
<path d="M312.418 8.61206L289.326 27.6694L280.664 91.1994L306.069 81.9588L312.418 8.61206Z" fill="#F7DC64"/>
<path d="M215.552 -31.3887H215.446L229.862 4.19765L246.15 -28.4464C251.164 -35.4642 250.413 -45.0707 244.371 -51.2241C238.328 -57.3776 228.74 -58.2996 221.636 -53.4102C214.533 -48.5209 211.967 -39.2333 215.552 -31.3887ZM221.064 -37C220.838 -41.1544 223.137 -45.0354 226.888 -46.8332C230.639 -48.6309 235.103 -47.9913 238.198 -45.2126C241.294 -42.434 242.411 -38.0636 241.029 -34.1394C239.648 -30.2152 236.039 -27.5102 231.886 -27.2858C226.217 -26.9793 221.372 -31.327 221.064 -36.9979V-37Z" fill="#FA0606"/>
<path d="M251.706 24.1255L245.563 -16.6113C245.563 -16.6113 211.088 -26.891 212.766 6.64489L206.442 13.2292L217.162 15.271L213.423 59.4622" stroke="white" stroke-width="1.26" stroke-miterlimit="10" stroke-linecap="round"/>
<path d="M194.354 122C194.354 122 195.61 145.913 197.267 144.802C198.924 143.69 200.112 133.556 200.112 133.556C200.112 133.556 196.762 151.286 200.904 146.997C205.046 142.709 203.663 131.909 203.663 131.909C203.663 131.909 202.678 150.834 206.801 146.308C210.924 141.783 209.412 130.946 209.412 130.946C209.412 130.946 209.234 152.327 213.722 146.042C218.21 139.756 214.379 127.351 214.379 127.351C214.379 127.351 218.956 149.634 221.089 145.011C223.222 140.387 223.337 122.017 223.337 122.017C223.337 122.017 342.304 106.894 300.291 88.7159C258.277 70.5377 237.742 103.09 219.417 90.0793C219.417 90.0793 197.374 77.666 241.268 71.2396C285.162 64.8132 269.791 114.23 294.803 75.2593" stroke="white" stroke-width="1.26" stroke-miterlimit="10" stroke-linecap="round"/>
<path d="M221.752 155.615C221.752 155.615 225.76 166.887 235.923 165.216C246.086 163.546 277.514 160.614 278.531 160.501C279.548 160.388 281.517 156.266 273.642 156.859C265.768 157.452 263.076 158.028 263.076 158.028C263.076 158.028 262.151 155.895 276.187 154.902C290.223 153.91 274.427 151.472 265.224 152.489C256.021 153.507 263.829 152.366 263.829 152.366C263.829 152.366 274.086 151.512 277.032 150.068C279.977 148.623 275.302 146.912 269.477 147.277C266.04 147.481 262.633 148.045 259.314 148.96C259.314 148.96 270.068 146.374 275.029 144.431C279.99 142.487 265.734 144.623 259.909 144.988C254.084 145.352 263.475 142.92 268.899 142.041C274.323 141.162 279.16 138.117 271.672 138.945C264.183 139.773 248.112 141.262 235.481 136.244C222.85 131.226 197.105 132.404 216.205 89.8404C235.304 47.2772 248.867 1.42826 206.216 30.6991C163.566 59.97 168.736 97.3251 186.468 104.846" stroke="white" stroke-width="1.134" stroke-miterlimit="10" stroke-linecap="round"/>
<path d="M259.657 21.3859C259.251 21.5166 258.86 21.6905 258.49 21.9044" stroke="white" stroke-width="1.134" stroke-miterlimit="10" stroke-linecap="round"/>
<path d="M256.53 23.5537C254.651 25.9007 253.773 30.5711 260.566 39.3423C272.122 54.2477 266.649 31.7361 274.25 40.5585C281.852 49.3809 254.79 76.4542 273.339 72.8036C288.293 69.8592 292.962 57.2283 295.973 55.6324" stroke="white" stroke-width="1.134" stroke-miterlimit="10" stroke-linecap="round" stroke-dasharray="5.07 5.07"/>
<path d="M297.183 55.6771C297.513 55.949 297.782 56.2888 297.97 56.6735" stroke="white" stroke-width="1.134" stroke-miterlimit="10" stroke-linecap="round"/>
<path d="M304.513 53.5798L299.033 62.8567" stroke="white" stroke-width="1.5708" stroke-miterlimit="10"/>
<path d="M301.141 54.845L304.935 62.4364" stroke="white" stroke-width="1.5708" stroke-miterlimit="10"/>
<path d="M313.41 22.6256L295.72 26.1652C293.838 26.5407 292.776 28.2028 293.401 29.7923C293.954 31.209 295.658 32.0838 297.349 31.8192L315.199 29.0456C316.974 28.7703 318.123 27.3387 317.803 25.8046L317.645 25.0451C317.296 23.3595 315.333 22.2394 313.41 22.6256Z" stroke="white" stroke-width="1.26" stroke-miterlimit="10" stroke-linecap="round"/>
<path d="M315.689 29.0776L297.986 32.6194C296.105 32.997 295.045 34.6569 295.668 36.2465C296.223 37.6632 297.925 38.538 299.618 38.2755L317.466 35.5018C319.243 35.2245 320.392 33.795 320.072 32.2609L319.914 31.5013C319.565 29.8115 317.609 28.6914 315.689 29.0776Z" stroke="white" stroke-width="1.26" stroke-miterlimit="10" stroke-linecap="round"/>
<path d="M318.249 35.664L300.57 39.2441C298.691 39.6239 297.635 41.2881 298.262 42.8713C298.821 44.288 300.527 45.1585 302.219 44.8897L320.056 42.0712C321.83 41.7917 322.976 40.3643 322.652 38.8238L322.492 38.0643C322.135 36.3915 320.169 35.2757 318.249 35.664Z" stroke="white" stroke-width="1.26" stroke-miterlimit="10" stroke-linecap="round"/>
<path d="M319.61 42.0776L302.383 46.8696C300.55 47.3796 299.659 49.1142 300.435 50.6653C301.122 52.0415 302.901 52.7989 304.556 52.4127L322.013 48.3589C323.75 47.9578 324.752 46.4386 324.285 44.9344L324.055 44.1877C323.541 42.5363 321.482 41.557 319.61 42.0776Z" stroke="white" stroke-width="1.26" stroke-miterlimit="10" stroke-linecap="round"/>
<path d="M240.909 84.165L258.731 81.3699C260.628 81.0712 261.756 79.4497 261.201 77.8388C260.706 76.3987 259.041 75.4556 257.339 75.6476L239.391 77.6767C237.603 77.8772 236.405 79.2577 236.65 80.8045L236.778 81.5705C237.057 83.2667 238.971 84.4637 240.909 84.165Z" stroke="white" stroke-width="1.26" stroke-miterlimit="10" stroke-linecap="round"/>
<path d="M238.907 77.6362L256.729 74.8412C258.625 74.5446 259.753 72.9209 259.199 71.31C258.706 69.8613 257.036 68.9161 255.33 69.1018L237.382 71.1308C235.595 71.3442 234.396 72.7139 234.641 74.2608L234.769 75.0268C235.068 76.7294 236.97 77.9306 238.907 77.6362Z" stroke="white" stroke-width="1.26" stroke-miterlimit="10" stroke-linecap="round"/>
<path d="M236.618 70.9366L254.429 68.1032C256.326 67.8024 257.45 66.183 256.889 64.5657C256.396 63.1298 254.722 62.1867 253.022 62.383L235.08 64.4526C233.295 64.666 232.094 66.04 232.352 67.5869L232.48 68.3528C232.764 70.0491 234.681 71.2375 236.618 70.9366Z" stroke="white" stroke-width="1.26" stroke-miterlimit="10" stroke-linecap="round"/>
<path d="M235.528 64.4676L252.941 60.4137C254.792 59.987 255.756 58.2801 255.046 56.7034C254.417 55.2995 252.672 54.4717 250.993 54.7832L233.382 58.0924C231.629 58.421 230.565 59.8889 230.968 61.4187L231.168 62.1761C231.621 63.8446 233.634 64.9114 235.528 64.4676Z" stroke="white" stroke-width="1.26" stroke-miterlimit="10" stroke-linecap="round"/>
<path d="M191.843 54.6488C192.573 54.6488 193.165 54.0565 193.165 53.3259C193.165 52.5954 192.573 52.0031 191.843 52.0031C191.113 52.0031 190.521 52.5954 190.521 53.3259C190.521 54.0565 191.113 54.6488 191.843 54.6488Z" fill="#494993"/>
<path d="M200.511 10.8032C202.477 10.8032 204.071 9.20893 204.071 7.24225C204.071 5.27558 202.477 3.68127 200.511 3.68127C198.545 3.68127 196.951 5.27558 196.951 7.24225C196.951 9.20893 198.545 10.8032 200.511 10.8032Z" fill="#F7DC64"/>
<path d="M219.502 48.1434C220.67 48.1434 221.617 47.1958 221.617 46.0269C221.617 44.8579 220.67 43.9103 219.502 43.9103C218.333 43.9103 217.386 44.8579 217.386 46.0269C217.386 47.1958 218.333 48.1434 219.502 48.1434Z" fill="#FA0606"/>
</g>
<defs>
<clipPath id="clip0_336_2140">
<rect width="348" height="115" rx="8" fill="white"/>
</clipPath>
</defs>
</svg>
