<svg width="348" height="115" viewBox="0 0 348 115" fill="none" xmlns="http://www.w3.org/2000/svg">
<g clip-path="url(#clip0_336_2191)">
<rect width="348" height="115" rx="8" fill="#FECDCD"/>
<path d="M255.624 9.08228L289.367 25.6717L281.579 82.6987L246.278 72.3318L255.624 9.08228Z" fill="#F7DC64"/>
<path d="M310.129 8.56512L289.365 25.6717L281.577 82.6987L304.42 74.404L310.129 8.56512Z" fill="#F7DC64"/>
<path d="M223.03 -27.341H222.935L235.897 4.6026L250.543 -24.7C255.051 -30.9994 254.376 -39.6225 248.943 -45.1461C243.51 -50.6697 234.888 -51.4973 228.501 -47.1084C222.114 -42.7195 219.807 -34.3827 223.03 -27.341ZM227.986 -32.378C227.784 -36.1072 229.851 -39.5909 233.223 -41.2046C236.596 -42.8183 240.61 -42.2442 243.393 -39.75C246.176 -37.2557 247.181 -33.3327 245.939 -29.8102C244.696 -26.2877 241.451 -23.8596 237.717 -23.6581C232.619 -23.383 228.263 -27.2857 227.986 -32.3761V-32.378Z" fill="#FA0606"/>
<path d="M255.539 22.4906L250.016 -14.0763C250.016 -14.0763 219.017 -23.3038 220.526 6.79935L214.84 12.7097L224.479 14.5425L221.117 54.2101" stroke="white" stroke-width="1.26" stroke-miterlimit="10" stroke-linecap="round"/>
<path d="M203.97 110.347C203.97 110.347 205.099 131.812 206.589 130.814C208.08 129.816 209.148 120.719 209.148 120.719C209.148 120.719 206.135 136.635 209.859 132.785C213.584 128.935 212.341 119.241 212.341 119.241C212.341 119.241 211.455 136.229 215.162 132.166C218.869 128.104 217.509 118.377 217.509 118.377C217.509 118.377 217.35 137.569 221.385 131.927C225.42 126.285 221.976 115.15 221.976 115.15C221.976 115.15 226.091 135.152 228.009 131.002C229.927 126.852 230.03 110.362 230.03 110.362C230.03 110.362 337 96.7869 299.224 80.4694C261.448 64.1519 242.983 93.3721 226.506 81.6932C226.506 81.6932 206.685 70.5506 246.153 64.782C285.621 59.0134 271.8 103.371 294.29 68.3903" stroke="white" stroke-width="1.26" stroke-miterlimit="10" stroke-linecap="round"/>
<path d="M228.606 140.521C228.606 140.521 232.209 150.639 241.347 149.139C250.486 147.639 278.744 145.008 279.659 144.906C280.574 144.805 282.344 141.105 275.263 141.637C268.183 142.17 265.763 142.687 265.763 142.687C265.763 142.687 264.93 140.771 277.551 139.881C290.172 138.99 275.969 136.801 267.694 137.715C259.419 138.628 266.44 137.604 266.44 137.604C266.44 137.604 275.662 136.838 278.311 135.541C280.959 134.244 276.755 132.708 271.518 133.036C268.427 133.219 265.364 133.726 262.38 134.547C262.38 134.547 272.049 132.226 276.51 130.481C280.971 128.736 268.152 130.653 262.915 130.981C257.677 131.308 266.121 129.125 270.998 128.336C275.875 127.547 280.225 124.814 273.491 125.557C266.758 126.3 252.307 127.637 240.95 123.132C229.593 118.628 206.444 119.685 223.617 81.4788C240.791 43.2724 252.986 2.1167 214.637 28.3913C176.287 54.666 180.935 88.1973 196.88 94.9484" stroke="white" stroke-width="1.134" stroke-miterlimit="10" stroke-linecap="round"/>
<path d="M262.689 20.0314C262.323 20.1488 261.972 20.3048 261.64 20.4968" stroke="white" stroke-width="1.134" stroke-miterlimit="10" stroke-linecap="round"/>
<path d="M259.877 21.9773C258.187 24.084 257.397 28.2764 263.505 36.1498C273.896 49.5294 268.975 29.3221 275.81 37.2414C282.645 45.1608 258.312 69.4628 274.991 66.1859C288.436 63.5429 292.635 52.2049 295.342 50.7723" stroke="white" stroke-width="1.134" stroke-miterlimit="10" stroke-linecap="round" stroke-dasharray="5.07 5.07"/>
<path d="M296.43 50.8126C296.727 51.0566 296.968 51.3616 297.137 51.707" stroke="white" stroke-width="1.134" stroke-miterlimit="10" stroke-linecap="round"/>
<path d="M303.021 48.9299L298.094 57.2572" stroke="white" stroke-width="1.5708" stroke-miterlimit="10"/>
<path d="M299.988 50.0656L303.4 56.8799" stroke="white" stroke-width="1.5708" stroke-miterlimit="10"/>
<path d="M311.02 21.1442L295.114 24.3215C293.423 24.6586 292.468 26.1505 293.03 27.5773C293.526 28.849 295.059 29.6343 296.579 29.3968L312.629 26.907C314.225 26.6599 315.259 25.3748 314.971 23.9978L314.829 23.316C314.515 21.803 312.75 20.7975 311.02 21.1442Z" stroke="white" stroke-width="1.26" stroke-miterlimit="10" stroke-linecap="round"/>
<path d="M313.07 26.9357L297.153 30.115C295.461 30.454 294.508 31.944 295.068 33.3708C295.567 34.6425 297.097 35.4277 298.62 35.1922L314.668 32.7024C316.265 32.4534 317.299 31.1702 317.011 29.7932L316.869 29.1114C316.555 27.5946 314.796 26.5891 313.07 26.9357Z" stroke="white" stroke-width="1.26" stroke-miterlimit="10" stroke-linecap="round"/>
<path d="M315.372 32.8479L299.475 36.0616C297.786 36.4026 296.836 37.8964 297.4 39.3175C297.903 40.5892 299.437 41.3706 300.958 41.1293L316.996 38.5993C318.592 38.3484 319.622 37.0671 319.33 35.6844L319.186 35.0025C318.866 33.501 317.098 32.4994 315.372 32.8479Z" stroke="white" stroke-width="1.26" stroke-miterlimit="10" stroke-linecap="round"/>
<path d="M316.595 38.6051L301.105 42.9066C299.458 43.3644 298.656 44.9214 299.354 46.3138C299.972 47.5491 301.571 48.229 303.059 47.8823L318.756 44.2434C320.317 43.8834 321.219 42.5197 320.799 41.1695L320.592 40.4992C320.13 39.0168 318.279 38.1378 316.595 38.6051Z" stroke="white" stroke-width="1.26" stroke-miterlimit="10" stroke-linecap="round"/>
<path d="M245.831 76.3843L261.856 73.8753C263.561 73.6072 264.575 72.1517 264.077 70.7057C263.632 69.4129 262.134 68.5664 260.604 68.7388L244.466 70.5601C242.858 70.7402 241.781 71.9793 242.001 73.3678L242.116 74.0554C242.368 75.578 244.088 76.6524 245.831 76.3843Z" stroke="white" stroke-width="1.26" stroke-miterlimit="10" stroke-linecap="round"/>
<path d="M244.03 70.5238L260.055 68.0149C261.76 67.7487 262.775 66.2912 262.276 64.8452C261.833 63.5448 260.331 62.6964 258.797 62.863L242.659 64.6844C241.052 64.8759 239.974 66.1054 240.195 67.494L240.31 68.1815C240.578 69.7098 242.289 70.7881 244.03 70.5238Z" stroke="white" stroke-width="1.26" stroke-miterlimit="10" stroke-linecap="round"/>
<path d="M241.972 64.5101L257.988 61.9667C259.693 61.6967 260.703 60.243 260.199 58.7913C259.756 57.5024 258.251 56.6559 256.722 56.8321L240.59 58.6898C238.984 58.8813 237.905 60.1147 238.137 61.5032L238.252 62.1908C238.507 63.7134 240.231 64.7801 241.972 64.5101Z" stroke="white" stroke-width="1.26" stroke-miterlimit="10" stroke-linecap="round"/>
<path d="M240.992 58.7031L256.649 55.0643C258.314 54.6812 259.18 53.1491 258.542 51.7337C257.976 50.4735 256.407 49.7304 254.898 50.0101L239.063 52.9805C237.487 53.2755 236.53 54.5931 236.892 55.9663L237.072 56.6462C237.479 58.1439 239.289 59.1015 240.992 58.7031Z" stroke="white" stroke-width="1.26" stroke-miterlimit="10" stroke-linecap="round"/>
<path d="M201.712 49.8894C202.369 49.8894 202.901 49.3578 202.901 48.702C202.901 48.0462 202.369 47.5146 201.712 47.5146C201.056 47.5146 200.523 48.0462 200.523 48.702C200.523 49.3578 201.056 49.8894 201.712 49.8894Z" fill="#494993"/>
<path d="M209.506 10.5321C211.274 10.5321 212.707 9.10099 212.707 7.33563C212.707 5.57027 211.274 4.13916 209.506 4.13916C207.739 4.13916 206.306 5.57027 206.306 7.33563C206.306 9.10099 207.739 10.5321 209.506 10.5321Z" fill="#F7DC64"/>
<path d="M226.582 44.05C227.633 44.05 228.485 43.1994 228.485 42.1501C228.485 41.1008 227.633 40.2502 226.582 40.2502C225.531 40.2502 224.68 41.1008 224.68 42.1501C224.68 43.1994 225.531 44.05 226.582 44.05Z" fill="#FA0606"/>
</g>
<defs>
<clipPath id="clip0_336_2191">
<rect width="348" height="115" rx="8" fill="white"/>
</clipPath>
</defs>
</svg>
