<svg width="41" height="57" viewBox="0 0 41 57" fill="none" xmlns="http://www.w3.org/2000/svg">
<path d="M38.7453 18.8082C38.7453 20.6003 35.2265 21.8085 34.7018 23.4241C34.159 25.0985 36.2758 28.1441 35.2626 29.5379C34.2404 30.9453 30.6809 29.8682 29.2742 30.891C27.8811 31.9047 27.8133 35.629 26.1398 36.1721C24.5251 36.697 22.2907 33.742 20.4996 33.742C18.7085 33.742 16.4742 36.697 14.8595 36.1721C13.186 35.629 13.1181 31.9047 11.725 30.891C10.3184 29.8682 6.7588 30.9453 5.7366 29.5379C4.72346 28.1441 6.84021 25.0985 6.29745 23.4241C5.77279 21.8085 2.25391 20.5957 2.25391 18.8082C2.25391 17.0207 5.77279 15.8079 6.29745 14.1923C6.84021 12.5179 4.72346 9.47235 5.7366 8.07853C6.7588 6.67114 10.3184 7.74818 11.725 6.72544C13.1181 5.71176 13.186 1.98737 14.8595 1.44432C16.4742 0.919379 18.7085 3.87445 20.4996 3.87445C22.2907 3.87445 24.5251 0.919379 26.1398 1.44432C27.8133 1.98737 27.8811 5.71176 29.2742 6.72544C30.6809 7.74818 34.2404 6.67114 35.2626 8.07853C36.2758 9.47235 34.159 12.5179 34.7018 14.1923C35.2219 15.8034 38.7453 17.0162 38.7453 18.8082Z" stroke="white" stroke-width="2.14286" stroke-miterlimit="10"/>
<path d="M20.2148 36.9368L27.8632 54.4183C28.3743 55.5859 29.9573 55.7171 30.3508 54.6265L31.6128 50.4315C31.857 49.7481 32.644 49.4811 33.3496 49.8432L37.47 52.1737C38.5963 52.7485 39.6637 51.7302 39.1571 50.5672L30.2694 30.2528" stroke="white" stroke-width="2.14286" stroke-miterlimit="10"/>
<path d="M21.4898 34.0224L12.5659 54.4183C12.0548 55.5859 10.4718 55.7171 10.0783 54.6265L8.81638 50.4315C8.57214 49.7481 7.78514 49.4811 7.07955 49.8432L2.95911 52.1737C1.83289 52.7485 0.765467 51.7302 1.27204 50.5672L10.1642 30.2528" stroke="white" stroke-width="2.14286" stroke-miterlimit="10"/>
</svg>
