<svg width="44" height="47" viewBox="0 0 44 47" fill="none" xmlns="http://www.w3.org/2000/svg">
<path d="M37.4253 32.4074L29.9826 39.8273C29.0291 40.7774 27.7445 41.3077 26.3981 41.3077H6.78944C3.9863 41.3077 1.71289 39.0318 1.71289 36.2256V6.74951C1.71289 3.94331 3.9863 1.66742 6.78944 1.66742H33.8408C36.6439 1.66742 38.9173 3.94331 38.9173 6.74951V28.8058C38.9218 30.1581 38.3832 31.4529 37.4253 32.4074Z" stroke="white" stroke-width="2.14286" stroke-miterlimit="10"/>
<path d="M13.4785 18.4245C13.4785 17.873 13.9256 17.426 14.477 17.426H35.7787C36.3301 17.426 36.7772 17.873 36.7772 18.4245C36.7772 18.9759 36.3301 19.423 35.7787 19.423H14.477C13.9256 19.423 13.4785 18.9759 13.4785 18.4245Z" fill="white"/>
<path d="M13.4785 23.0838C13.4785 22.5323 13.9256 22.0853 14.477 22.0853H35.7787C36.3301 22.0853 36.7772 22.5323 36.7772 23.0838C36.7772 23.6352 36.3301 24.0823 35.7787 24.0823H14.477C13.9256 24.0823 13.4785 23.6352 13.4785 23.0838Z" fill="white"/>
<path d="M13.4785 27.7431C13.4785 27.1916 13.9256 26.7446 14.477 26.7446H35.7787C36.3301 26.7446 36.7772 27.1916 36.7772 27.7431C36.7772 28.2945 36.3301 28.7416 35.7787 28.7416H14.477C13.9256 28.7416 13.4785 28.2945 13.4785 27.7431Z" fill="white"/>
<path d="M13.4785 32.4034C13.4785 31.8519 13.9256 31.4048 14.477 31.4048H25.1278C25.6793 31.4048 26.1264 31.8519 26.1264 32.4034C26.1264 32.9548 25.6793 33.4019 25.1278 33.4019H14.477C13.9256 33.4019 13.4785 32.9548 13.4785 32.4034Z" fill="white"/>
</svg>
