<svg width="25" height="24" viewBox="0 0 25 24" fill="none" xmlns="http://www.w3.org/2000/svg">
<path d="M17.02 5.6499L13.92 3.2499C13.52 2.8499 12.62 2.6499 12.02 2.6499H8.21998C7.01998 2.6499 5.71998 3.5499 5.41998 4.7499L3.01998 12.0499C2.51998 13.4499 3.41998 14.6499 4.91998 14.6499H8.91998C9.51998 14.6499 10.02 15.1499 9.91998 15.8499L9.41998 19.0499C9.21998 19.9499 9.81998 20.9499 10.72 21.2499C11.52 21.5499 12.52 21.1499 12.92 20.5499L17.02 14.4499" stroke="#0040A1" stroke-width="1.5" stroke-miterlimit="10"/>
<path d="M22.12 5.65V15.45C22.12 16.85 21.52 17.35 20.12 17.35H19.12C17.72 17.35 17.12 16.85 17.12 15.45V5.65C17.12 4.25 17.72 3.75 19.12 3.75H20.12C21.52 3.75 22.12 4.25 22.12 5.65Z" stroke="#0040A1" stroke-width="1.5" stroke-linecap="round" stroke-linejoin="round"/>
</svg>
