<svg width="126" height="126" viewBox="0 0 126 126" fill="none" xmlns="http://www.w3.org/2000/svg">
<path d="M63.0002 125.991C97.7943 125.991 126 97.7845 126 62.9905C126 28.1964 97.7943 -0.00976562 63.0002 -0.00976562C28.2062 -0.00976562 0 28.1964 0 62.9905C0 97.7845 28.2062 125.991 63.0002 125.991Z" fill="#EF4C45"/>
<path d="M76.2812 124.514C77.4893 124.28 78.6903 124.01 79.8827 123.705C81.9044 123.14 83.8966 122.474 85.8519 121.71C87.8097 120.953 89.7283 120.098 91.6007 119.148C93.4736 118.195 95.2976 117.149 97.0659 116.014C98.8322 114.879 100.541 113.656 102.185 112.35C103.832 111.042 105.412 109.652 106.92 108.186C108.426 106.724 109.857 105.187 111.209 103.582C112.563 101.975 113.835 100.302 115.021 98.5683C116.207 96.8375 117.305 95.0485 118.313 93.208C119.32 91.3649 120.235 89.4725 121.053 87.538C121.872 85.6031 122.594 83.6284 123.216 81.6213C123.749 79.864 124.204 78.0843 124.581 76.2873L87.1487 38.86C83.9854 35.6848 80.2256 33.1661 76.0856 31.4488C71.9456 29.7316 67.507 28.8496 63.0249 28.8535C58.542 28.8489 54.1024 29.7305 49.9614 31.4478C45.8204 33.1651 42.0598 35.6842 38.8959 38.86C35.7178 42.025 33.1967 45.7871 31.4777 49.9298C29.7586 54.0726 28.8754 58.5143 28.8789 62.9995C28.8762 67.4831 29.7598 71.923 31.4789 76.0639C33.1979 80.2049 35.7186 83.9651 38.8959 87.1285L76.2812 124.514Z" fill="#DF2209"/>
<path d="M63.0316 28.8652C71.7571 28.8652 80.4826 32.199 87.1606 38.8717C90.3344 42.0386 92.8524 45.8004 94.5705 49.9417C96.2886 54.083 97.1729 58.5225 97.1729 63.006C97.1729 67.4895 96.2886 71.929 94.5705 76.0703C92.8524 80.2116 90.3344 83.9734 87.1606 87.1403C83.995 90.3144 80.2342 92.8327 76.0938 94.551C71.9533 96.2693 67.5145 97.1538 63.0316 97.1538C58.5487 97.1538 54.1099 96.2693 49.9694 94.551C45.829 92.8327 42.0682 90.3144 38.9026 87.1403C35.3328 83.588 32.5962 79.2876 30.8902 74.5493C29.1843 69.811 28.5516 64.753 29.0379 59.7405C29.7959 51.8467 33.2868 44.4655 38.9079 38.8717C42.0712 35.6965 45.8309 33.1778 49.9709 31.4606C54.1109 29.7433 58.5496 28.8613 63.0316 28.8652ZM75.9834 47.3557C75.9781 47.3557 75.9676 47.3558 75.9624 47.3663C75.2839 47.393 74.6414 47.6786 74.1669 48.1643L63.0211 59.2943L51.8859 48.1643C51.6413 47.9145 51.3499 47.7154 51.0283 47.5785C50.7066 47.4415 50.3611 47.3694 50.0116 47.3663C47.9274 47.3558 46.6779 50.4322 48.1741 51.876L59.3094 63.0112L48.1741 74.1465C46.1634 76.0785 49.9591 79.869 51.8859 77.8583L63.0211 66.7283L74.1669 77.8583C76.0989 79.869 79.8894 76.0733 77.8786 74.1465L66.7486 63.0112L77.8786 51.876C79.4011 50.4165 78.0886 47.2875 75.9834 47.3557Z" fill="white"/>
</svg>
