<svg width="25" height="24" viewBox="0 0 25 24" fill="none" xmlns="http://www.w3.org/2000/svg">
<path d="M5.42004 20.2799L7.19005 21.6499C7.42005 21.8799 7.93004 21.9898 8.28004 21.9898H10.45C11.14 21.9898 11.88 21.4799 12.05 20.7899L13.42 16.6198C13.71 15.8198 13.19 15.1299 12.33 15.1299H10.04C9.70005 15.1299 9.41005 14.8398 9.47005 14.4398L9.76005 12.6098C9.87005 12.0998 9.53004 11.5198 9.02004 11.3498C8.56004 11.1798 7.99005 11.4099 7.76005 11.7499L5.42004 15.2398" stroke="#0040A1" stroke-width="1.5" stroke-miterlimit="10"/>
<path d="M2.5 20.2799V14.6799C2.5 13.8799 2.84 13.5898 3.64 13.5898H4.21C5.01 13.5898 5.35 13.8799 5.35 14.6799V20.2799C5.35 21.0799 5.01 21.3699 4.21 21.3699H3.64C2.84 21.3699 2.5 21.0899 2.5 20.2799Z" stroke="#0040A1" stroke-width="1.5" stroke-linecap="round" stroke-linejoin="round"/>
<path d="M19.5799 3.71973L17.8099 2.34973C17.5799 2.11973 17.0699 2.00977 16.7199 2.00977H14.5499C13.8599 2.00977 13.1199 2.51972 12.9499 3.20972L11.5799 7.37976C11.2899 8.17976 11.8099 8.86975 12.6699 8.86975H14.9599C15.2999 8.86975 15.5899 9.15981 15.5299 9.55981L15.2399 11.3898C15.1299 11.8998 15.4699 12.4798 15.9799 12.6498C16.4399 12.8198 17.0099 12.5898 17.2399 12.2498L19.5799 8.75977" stroke="#0040A1" stroke-width="1.5" stroke-miterlimit="10"/>
<path d="M22.4999 3.71985V9.31982C22.4999 10.1198 22.1599 10.4099 21.3599 10.4099H20.7899C19.9899 10.4099 19.6499 10.1198 19.6499 9.31982V3.71985C19.6499 2.91985 19.9899 2.62988 20.7899 2.62988H21.3599C22.1599 2.62988 22.4999 2.90985 22.4999 3.71985Z" stroke="#0040A1" stroke-width="1.5" stroke-linecap="round" stroke-linejoin="round"/>
</svg>
