<svg width="25" height="24" viewBox="0 0 25 24" fill="none" xmlns="http://www.w3.org/2000/svg">
<path d="M7.97998 18.35L11.08 20.75C11.48 21.15 12.38 21.35 12.98 21.35H16.78C17.98 21.35 19.28 20.45 19.58 19.25L21.98 11.95C22.48 10.55 21.58 9.34997 20.08 9.34997H16.08C15.48 9.34997 14.98 8.84997 15.08 8.14997L15.58 4.94997C15.78 4.04997 15.18 3.04997 14.28 2.74997C13.48 2.44997 12.48 2.84997 12.08 3.44997L7.97998 9.54997" stroke="#0040A1" stroke-width="1.5" stroke-miterlimit="10"/>
<path d="M2.88 18.3499V8.5499C2.88 7.1499 3.48 6.6499 4.88 6.6499H5.88C7.28 6.6499 7.88 7.1499 7.88 8.5499V18.3499C7.88 19.7499 7.28 20.2499 5.88 20.2499H4.88C3.48 20.2499 2.88 19.7499 2.88 18.3499Z" stroke="#0040A1" stroke-width="1.5" stroke-linecap="round" stroke-linejoin="round"/>
</svg>
