<svg width="19" height="17" viewBox="0 0 19 17" fill="none" xmlns="http://www.w3.org/2000/svg">
<path d="M5.01363 2.36331C5.01363 2.62847 4.95862 2.89074 4.85206 3.13354C4.7455 3.37635 4.58972 3.5944 4.39457 3.77392C4.19942 3.95343 3.96914 4.0905 3.7183 4.17645C3.46746 4.26241 3.20152 4.29538 2.93728 4.27328H2.91233C2.651 4.28677 2.38969 4.24652 2.14455 4.155C1.8994 4.06349 1.67563 3.92266 1.48708 3.74123C1.29852 3.55979 1.14919 3.34161 1.0483 3.10017C0.94742 2.85873 0.897134 2.59916 0.900554 2.33752C0.903974 2.07587 0.961028 1.8177 1.06819 1.57898C1.17535 1.34026 1.33034 1.12606 1.52357 0.949616C1.7168 0.773174 1.94418 0.638244 2.19163 0.553168C2.43908 0.468092 2.70136 0.434679 2.96224 0.454994C3.22461 0.435265 3.48823 0.470006 3.73653 0.557034C3.98483 0.644062 4.21246 0.781498 4.4051 0.960706C4.59775 1.13992 4.75125 1.35703 4.85597 1.5984C4.9607 1.83977 5.01437 2.1002 5.01363 2.36331ZM1.09885 5.7823H4.76906V16.8246H1.09885V5.7823ZM18.0108 10.4907V16.8246H14.3406V10.9183C14.3406 9.43255 13.8098 8.41933 12.4772 8.41933C12.0639 8.42307 11.6618 8.55392 11.3254 8.79413C10.9891 9.03434 10.7348 9.37225 10.5972 9.76197C10.5031 10.0506 10.462 10.3538 10.4757 10.6571V16.8262H6.80216C6.80216 16.8262 6.85207 6.81548 6.80216 5.78064H10.479V7.34455L10.4524 7.38282H10.4774V7.34123C10.8098 6.76413 11.294 6.28918 11.8774 5.96799C12.4608 5.6468 13.1211 5.49166 13.7865 5.51943C16.2006 5.51943 18.0125 7.09832 18.0125 10.4907H18.0108Z" fill="#0040A1"/>
</svg>
