<svg width="126" height="126" viewBox="0 0 126 126" fill="none" xmlns="http://www.w3.org/2000/svg">
<path d="M63 126C97.7939 126 126 97.7939 126 63C126 28.2061 97.7939 0 63 0C28.2061 0 0 28.2061 0 63C0 97.7939 28.2061 126 63 126Z" fill="#50B748"/>
<path d="M76.2764 124.514C77.4846 124.28 78.6856 124.01 79.878 123.705C81.8997 123.14 83.8919 122.474 85.8472 121.71C87.8049 120.953 89.7236 120.098 91.596 119.148C93.4688 118.195 95.2929 117.149 97.0612 116.014C98.8274 114.879 100.536 113.656 102.18 112.35C103.827 111.042 105.407 109.652 106.915 108.186C108.421 106.724 109.853 105.187 111.205 103.582C112.558 101.975 113.83 100.302 115.016 98.5683C116.202 96.8375 117.301 95.0485 118.308 93.208C119.315 91.3649 120.23 89.4725 121.048 87.538C121.868 85.6031 122.59 83.6284 123.211 81.6213C123.744 79.864 124.199 78.0843 124.576 76.2873L87.1439 38.86C83.9827 35.6849 80.2249 33.1662 76.0866 31.4488C71.9483 29.7315 67.5112 28.8495 63.0307 28.8535C58.5462 28.8486 54.1049 29.7302 49.9622 31.4474C45.8195 33.1647 42.0571 35.6838 38.8912 38.86C35.7174 42.0269 33.1994 45.7886 31.4813 49.9299C29.7632 54.0712 28.8789 58.5108 28.8789 62.9943C28.8789 67.4778 29.7632 71.9173 31.4813 76.0586C33.1994 80.1999 35.7174 83.9617 38.8912 87.1285L76.2764 124.514Z" fill="#10A711"/>
<path d="M62.9877 28.8535C71.7132 28.8535 80.4387 32.1873 87.1167 38.86C90.2906 42.0269 92.8086 45.7886 94.5266 49.9299C96.2447 54.0712 97.129 58.5108 97.129 62.9943C97.129 67.4778 96.2447 71.9173 94.5266 76.0586C92.8086 80.1999 90.2906 83.9617 87.1167 87.1285C83.9499 90.3024 80.1881 92.8204 76.0468 94.5384C71.9055 96.2565 67.466 97.1408 62.9825 97.1408C58.4989 97.1408 54.0594 96.2565 49.9181 94.5384C45.7768 92.8204 42.0151 90.3024 38.8482 87.1285C35.6744 83.9617 33.1564 80.1999 31.4383 76.0586C29.7203 71.9173 28.8359 67.4778 28.8359 62.9943C28.8359 58.5108 29.7203 54.0712 31.4383 49.9299C33.1564 45.7886 35.6744 42.0269 38.8482 38.86C42.0141 35.6838 45.7765 33.1647 49.9192 31.4474C54.0619 29.7302 58.5032 28.8486 62.9877 28.8535ZM78.5277 52.489C78.0308 52.5366 77.5575 52.7241 77.1627 53.0298L57.9792 67.4148L49.091 58.5318C47.1642 56.5263 43.3685 60.3168 45.3792 62.2435L55.8792 72.7435C56.3344 73.174 56.9245 73.4337 57.5493 73.4787C58.1742 73.5237 58.7954 73.3511 59.3075 72.9903L80.3075 57.2403C82.0715 55.954 80.9847 52.5258 78.8007 52.4943C78.7115 52.4897 78.6222 52.4897 78.533 52.4943L78.5277 52.489Z" fill="white"/>
</svg>
